<?xml version="1.0" standalone="no"?>
<!DOCTYPE svg PUBLIC "-//W3C//DTD SVG 20010904//EN"
 "http://www.w3.org/TR/2001/REC-SVG-20010904/DTD/svg10.dtd">
<svg version="1.0" xmlns="http://www.w3.org/2000/svg"
 width="640.000000pt" height="640.000000pt" viewBox="0 0 640.000000 640.000000"
 preserveAspectRatio="xMidYMid meet">
<metadata>
Created by potrace 1.11, written by Peter Selinger 2001-2013
</metadata>
<g transform="translate(0.000000,640.000000) scale(0.100000,-0.100000)"
fill="#000000" stroke="none">
<path d="M3042 6179 c-1166 -73 -2112 -969 -2258 -2139 -16 -132 -18 -414 -4
-545 24 -213 77 -432 152 -624 33 -84 38 -105 27 -112 -79 -49 -471 -275 -746
-431 -83 -47 -82 -54 76 -288 353 -527 658 -851 1041 -1104 451 -299 925 -471
1500 -543 189 -23 625 -23 805 1 916 120 1710 586 2280 1336 154 203 364 566
349 604 -3 8 -31 30 -62 49 -98 58 -737 448 -739 451 -2 1 13 47 33 102 94
263 136 513 137 814 0 293 -38 530 -130 794 -359 1039 -1361 1704 -2461 1635z
m396 -94 c953 -100 1740 -754 2017 -1676 24 -80 55 -227 77 -364 19 -124 16
-475 -6 -620 -79 -527 -317 -993 -692 -1355 -346 -335 -758 -545 -1241 -632
-113 -20 -159 -23 -393 -23 -288 1 -358 9 -581 65 -300 76 -582 213 -844 409
-117 89 -315 282 -405 396 -202 255 -364 579 -441 879 -132 513 -85 1068 131
1547 416 922 1378 1478 2378 1374z m2170 -3444 c97 -59 260 -159 362 -221 102
-62 187 -114 189 -116 7 -6 -76 -163 -150 -281 -328 -523 -788 -943 -1334
-1218 -451 -228 -848 -328 -1350 -342 -802 -22 -1560 224 -2156 698 -270 215
-524 507 -804 923 l-107 160 24 18 c13 9 136 81 273 159 138 78 294 168 347
200 53 33 100 59 105 59 4 0 30 -42 57 -93 110 -205 259 -399 448 -582 605
-589 1470 -819 2294 -610 674 172 1238 624 1565 1254 29 56 54 101 56 101 2 0
83 -49 181 -109z"/>
<path d="M2981 5114 c-769 -124 -1286 -871 -1131 -1633 53 -262 170 -486 353
-678 355 -370 854 -511 1355 -382 292 75 567 262 755 514 302 404 352 976 126
1428 -189 377 -541 649 -954 739 -124 27 -376 33 -504 12z m432 -109 c511 -89
900 -454 1028 -965 21 -84 24 -118 24 -295 0 -187 -2 -206 -28 -298 -51 -185
-111 -312 -210 -446 -257 -345 -652 -536 -1072 -517 -270 12 -497 90 -700 240
-104 77 -227 196 -220 214 2 7 0 10 -5 7 -27 -16 -175 235 -228 385 -55 158
-67 237 -66 435 1 168 3 188 32 295 74 280 201 479 428 674 159 136 399 244
610 275 98 14 314 12 407 -4z"/>
<path d="M3156 4814 c-44 -43 -4 -79 99 -88 260 -22 534 -181 705 -410 105
-140 174 -318 191 -493 6 -60 14 -115 18 -123 9 -18 59 -26 73 -12 14 14 11
137 -6 225 -35 183 -126 377 -238 505 -16 18 -25 38 -22 44 4 6 3 8 -3 5 -5
-4 -19 4 -30 16 -40 45 -100 95 -181 150 -144 99 -283 154 -456 182 -115 19
-131 19 -150 -1z"/>
<path d="M5395 2442 c-17 -11 -45 -34 -63 -52 -33 -33 -122 -175 -122 -195 0
-9 293 -210 521 -359 27 -17 27 -17 49 20 13 20 19 39 14 43 -5 3 -55 37 -112
74 l-102 69 25 30 c67 80 94 201 60 269 -24 47 -53 78 -97 100 -49 25 -133 25
-173 1z m131 -78 c95 -45 102 -155 17 -261 l-18 -23 -105 70 c-58 38 -107 75
-109 81 -6 19 66 115 100 132 43 21 72 21 115 1z"/>
<path d="M833 2118 l-252 -202 17 -29 c34 -59 129 -162 175 -191 65 -40 128
-45 186 -14 25 13 53 35 63 49 27 35 39 97 28 142 -7 34 -6 38 8 32 35 -15
103 -17 132 -5 16 7 44 28 60 47 40 45 42 116 5 190 -28 54 -139 183 -158 182
-7 0 -125 -91 -264 -201z m352 6 c64 -135 -80 -221 -186 -112 -69 71 -69 69
22 143 l82 66 33 -32 c18 -18 40 -47 49 -65z m-270 -115 c14 -18 35 -49 45
-70 53 -102 -9 -198 -119 -186 -40 4 -53 12 -98 62 -29 31 -53 61 -53 68 1 11
178 157 192 157 3 0 18 -14 33 -31z"/>
<path d="M5097 2046 c-20 -8 -58 -30 -83 -51 -46 -38 -144 -149 -144 -164 0
-4 80 -86 178 -181 97 -95 203 -197 234 -228 l58 -56 30 29 30 29 -102 103
-102 103 34 36 c41 42 80 64 112 64 21 0 67 -23 191 -95 l49 -28 31 33 c20 20
27 34 20 37 -6 2 -49 27 -95 55 -92 56 -151 78 -190 71 l-26 -5 5 59 c8 90
-29 154 -110 188 -44 18 -70 18 -120 1z m107 -95 c37 -25 55 -57 56 -99 0 -44
-13 -67 -68 -125 l-46 -47 -83 82 c-46 45 -83 87 -83 93 1 16 45 62 86 90 45
30 97 32 138 6z"/>
<path d="M1265 1775 c-77 -95 -151 -197 -164 -226 -28 -61 -31 -141 -7 -188
41 -78 153 -151 231 -150 51 0 106 19 149 52 32 25 302 346 312 372 5 12 -39
55 -56 55 -4 0 -63 -68 -131 -151 -137 -168 -170 -204 -214 -231 -60 -36 -153
-13 -200 50 -26 34 -26 113 -2 163 10 20 81 113 157 205 l139 169 -29 28 c-17
15 -34 27 -38 26 -4 0 -70 -78 -147 -174z"/>
<path d="M4593 1650 c-149 -75 -206 -219 -152 -383 24 -74 89 -165 146 -207
217 -160 522 27 473 290 -23 122 -113 250 -211 301 -30 15 -67 24 -119 26 -69
4 -80 2 -137 -27z m194 -70 c58 -26 124 -95 159 -166 24 -49 29 -72 29 -135 0
-85 -20 -126 -82 -169 -41 -28 -125 -38 -177 -20 -90 29 -195 169 -211 281
-24 161 133 277 282 209z"/>
<path d="M1727 1288 l-148 -292 23 -18 c43 -33 165 -88 219 -100 30 -6 71 -8
90 -4 133 25 195 189 108 282 l-21 22 44 7 c59 10 92 31 117 75 44 78 13 171
-76 228 -55 35 -176 92 -195 92 -7 0 -80 -132 -161 -292z m256 181 c70 -35
107 -77 107 -121 0 -104 -98 -137 -214 -72 l-47 26 39 72 c22 39 44 81 51 94
14 27 12 27 64 1z m-80 -287 c47 -31 67 -68 67 -123 0 -33 -6 -47 -34 -75 -32
-32 -49 -38 -106 -35 -30 2 -140 51 -140 63 0 5 25 58 55 118 l55 110 33 -16
c17 -10 49 -28 70 -42z"/>
<path d="M4203 1435 c-131 -36 -234 -125 -268 -230 -48 -153 30 -356 164 -429
63 -34 156 -45 227 -27 57 15 142 54 178 82 l26 21 -21 29 -20 29 -34 -25
c-83 -64 -218 -83 -296 -42 -109 58 -178 238 -137 358 29 88 125 156 236 168
l57 6 0 35 c0 32 -3 35 -30 37 -16 1 -54 -4 -82 -12z"/>
<path d="M2307 1313 c-9 -27 -48 -163 -88 -303 -39 -140 -74 -260 -76 -267 -6
-15 42 -35 148 -62 132 -34 198 -24 260 38 72 72 73 169 3 242 l-35 36 40 11
c72 22 124 109 106 179 -18 72 -86 121 -210 153 -121 31 -131 29 -148 -27z
m202 -63 c47 -24 71 -55 71 -92 0 -68 -46 -109 -122 -107 -51 1 -123 21 -123
34 0 6 11 52 25 104 l25 93 43 -6 c23 -3 60 -15 81 -26z m-82 -276 c63 -30 88
-65 87 -121 -2 -107 -112 -152 -240 -98 l-33 14 15 53 c9 29 24 84 35 121 l20
68 32 -6 c18 -4 55 -18 84 -31z"/>
<path d="M2806 1228 c-3 -13 -17 -153 -31 -313 -14 -159 -27 -299 -28 -310 -2
-18 8 -21 138 -32 77 -6 161 -14 188 -18 l47 -6 0 35 c0 42 5 40 -160 56 -63
6 -116 13 -118 15 -4 4 9 156 34 402 20 204 22 193 -26 193 -33 0 -40 -4 -44
-22z"/>
<path d="M3401 1234 c-90 -8 -165 -15 -167 -16 -2 -3 48 -661 51 -665 1 -2 84
4 186 12 101 8 185 15 186 15 2 0 3 16 3 36 l0 37 -87 -7 c-49 -4 -115 -9
-149 -13 l-61 -5 -7 117 c-4 64 -5 119 -2 122 2 3 60 10 128 15 68 6 124 11
124 12 1 0 -1 16 -3 34 l-6 34 -101 -7 c-55 -3 -113 -8 -128 -11 -24 -5 -28
-2 -29 18 0 13 -4 60 -7 106 -6 69 -5 83 8 87 8 2 68 7 133 11 86 5 120 11
124 20 8 21 -6 64 -20 63 -6 -1 -86 -8 -176 -15z"/>
</g>
</svg>
